<?xml version="1.0" encoding="utf-8"?>
<!-- Generator: Adobe Illustrator 18.0.0, SVG Export Plug-In . SVG Version: 6.00 Build 0)  -->
<!DOCTYPE svg PUBLIC "-//W3C//DTD SVG 1.1//EN" "http://www.w3.org/Graphics/SVG/1.1/DTD/svg11.dtd">
<svg version="1.1" id="Calque_1" xmlns="http://www.w3.org/2000/svg" xmlns:xlink="http://www.w3.org/1999/xlink" x="0px" y="0px"
	 viewBox="0 0 68.5 128" enable-background="new 0 0 68.5 128" xml:space="preserve">
<g>
	<path d="M12.2,128c-1.3,0-2.7,0-4,0c-3.5-2.5-3.8-5.5-1.8-9.1C13,107.1,13.9,95,8.3,82.5c-0.7-1.5-1.1-3.1-1.7-4.7
		C-2.4,51.9-1.9,26,6.2,0c18.7,0,37.3,0,56,0c0.8,2.7,1.9,5.3,2.5,8c5.5,24.9,5.8,49.6-4.1,73.5c-5.4,13.1-5.1,25.5,1.5,37.9
		c1.9,3.6,1.2,6.3-2,8.6c-1.3,0-2.7,0-4,0 M28.5,107.8c1.2-12.7,1.3-12.7-3.2-25.6c-4.4-12.6-7.8-25.4-8-38.9
		C17.1,29.7,17,29.7,30.9,29.8c6.3,0,7.8,1.4,8.1,7.9c0.1,1.6-0.2,3.3-0.5,4.9c-0.6,3.6-1.5,7.2-1.8,10.8c-0.2,3.1,1.1,5.6,4.8,5.7
		c3.6,0,5.1-2,5-5.4c-0.1-2-0.5-3.9-0.8-5.9c-0.5-3.9-1.2-7.9-1.2-11.8c0-4,2.1-6.5,6.6-6.1c2.2,0.2,4.5,0,7.5,0
		c-1-6.6-1.7-12.4-2.9-18c-0.2-0.9-2.2-1.9-3.3-1.9C40.3,9.7,28.1,9.7,16,9.9c-1.2,0-3.3,1.5-3.4,2.4C11.4,22.7,10,33.1,9.7,43.5
		c-0.3,14,4.3,27.2,8.9,40.2c3.4,9.7,4.1,19.5,0.4,29.3c-0.4,1.1-0.6,2.4-0.8,3.6c10.8,0,21.3,0,31.8,0c-0.2-5-2.1-8-7.8-7.9
		C37.8,108.8,33.4,108.2,28.5,107.8z"/>
	<path fill="#FFFFFF" d="M56.2,128c-14.7,0-29.3,0-44,0"/>
	<path fill="#FFFFFF" d="M28.5,107.8c4.9,0.3,9.3,1,13.8,0.9c5.7-0.1,7.6,2.9,7.8,7.9c-10.6,0-21,0-31.8,0c0.3-1.2,0.4-2.5,0.8-3.6
		c3.7-9.8,3-19.5-0.4-29.3c-4.6-13-9.3-26.2-8.9-40.2c0.3-10.4,1.7-20.8,2.8-31.2c0.1-1,2.2-2.4,3.4-2.4c12.2-0.2,24.3-0.2,36.5,0
		c1.2,0,3.2,1.1,3.3,1.9c1.1,5.7,1.9,11.4,2.9,18c-3,0-5.3,0.2-7.5,0c-4.6-0.4-6.6,2.1-6.6,6.1c0,3.9,0.7,7.9,1.2,11.8
		c0.2,2,0.7,3.9,0.8,5.9c0.1,3.4-1.4,5.4-5,5.4c-3.7,0-5-2.5-4.8-5.7c0.3-3.6,1.2-7.2,1.8-10.8c0.3-1.6,0.5-3.3,0.5-4.9
		c-0.3-6.4-1.8-7.8-8.1-7.9C17,29.7,17.1,29.7,17.3,43.4c0.2,13.5,3.7,26.3,8,38.9C29.8,95.2,29.7,95.2,28.5,107.8z"/>
</g>
</svg>
