<?xml version="1.0" encoding="utf-8"?>
<!-- Generator: Adobe Illustrator 18.0.0, SVG Export Plug-In . SVG Version: 6.00 Build 0)  -->
<!DOCTYPE svg PUBLIC "-//W3C//DTD SVG 1.1//EN" "http://www.w3.org/Graphics/SVG/1.1/DTD/svg11.dtd">
<svg version="1.1" id="Calque_1" xmlns="http://www.w3.org/2000/svg" xmlns:xlink="http://www.w3.org/1999/xlink" x="0px" y="0px"
	 viewBox="0 0 657.8 144" enable-background="new 0 0 657.8 144" xml:space="preserve">
<g>
	<path d="M375.8,41.2c-3.5,12.3-0.5,23.6,4.9,35.4c0.1-4.1-1.4-7-2.1-10c-0.7-3.2-3.1-7.1-1.6-9.5c1.5-2.3,5.5,0.2,8.5,0.3
		c4.6,0.1,9.2-0.1,13.7-1.2c3.2-0.7,4.8-2.4,4.2-5.9c-0.6-3.3-0.9-6.7-0.9-10.1c2.5,0,3.6,12.1,3.2,18.6c-0.3,5-2.1,9.8-3.7,14.5
		c-3.1,9.3-4.4,18.7-1.7,28.4c0.2,0.9,0.6,1.8-0.2,2.6c-0.6,0.6-1.6,0.9-2.2,0.4c-0.8-0.7,0.6-0.7,0.7-1.3c0.1-1.7,0-2.9-3-2
		c-4.4,1.4-9.2,1.3-13.6,0c-2.9-0.9-3,0.2-2.8,1.9c0,0.5,1.9,0.9,0.2,1.5c-0.8,0.2-1.7-0.1-2-0.9c-0.2-0.7-0.1-1.6,0.1-2.3
		c2.7-9.8,1.4-19.4-2-28.7c-3.2-8.9-4.7-17.8-2.6-27.2c0.3-1.3,0.7-2.5,1.1-3.8c0.1-0.3,0.5-0.5,0.7-0.8
		C375.1,41.1,375.4,41.2,375.8,41.2z"/>
	<path d="M591.9,102.4c-4.8,3.2-8.2-0.8-12.1-0.7c-3.7,0.1-7.2,2.9-11.1,0.6c2.2-0.7,4.4-1.3,6.7-2c2.1-0.6,2.8-1.9,3-4
		c0.6-5.9-0.6-10.3-6.5-13.3c-4.7-2.4-7.3-6.8-6.8-12.4c0.6-7.5,4.5-14.6,2-22.4c2.3,4.4,3,9,1.4,13.7c1.7,0.2,2-0.8,2-1.4
		c0.1-4.5,2.6-4.6,6.2-4c3.9,0.6,7.9,0.4,11.7-1c1.7-0.6,3-0.1,3.5,1.5c1,3.7,2,7.4,2.6,11.1c1.1,6.7-1.2,12.3-7.2,15.3
		c-6.1,3.1-6.4,8-6,13.6c0.1,1.9,1.3,2.8,2.9,3.3C586.5,100.9,588.8,101.5,591.9,102.4z"/>
	<path d="M303.2,53.3c2.1,0.5,1.9,2.5,3.6,2.9c-0.7-2.4,0-2.8,2.5-2.5c10.4,1,20.8,0.8,31.2,0.2c2.6-0.2,5.2-0.5,7.5-2.7
		c0.3,4.5-1.7,7-4.8,8.8c-4.1,2.3-8,4.5-8.2,10.1c-0.1,2.3-2.6,3.5-4.6,4.6c-2.4,1.3-3.3,3-3.2,5.8c0.2,4.7,0.3,9.5,0,14.2
		c-0.2,3.7,1.4,5.3,4.7,6c1.9,0.4,3.7,0.9,6.3,1.5c-4.9,3.2-8.4-0.6-12.3-0.6c-3.8,0-7.2,3.9-11.5,1c1.8-1.5,4-1.4,6-2
		c2.7-0.8,4.2-2.2,4-5.3c-0.2-5-0.2-10,0-15c0.1-2.6-0.8-4.3-3.1-5.4c-2.9-1.4-4.7-3.6-4.8-7.1c-0.1-3.5-2.9-4.8-5.5-6.1
		C307.5,60.1,304.2,58.1,303.2,53.3z"/>
	<path d="M275.3,100c0.6,2,3.2,0.8,4.8,3.5c-4.2-1.4-7.7-0.8-12-0.9c1.9-1.1,3-1.8,4.2-2.5c0.8-6.1,0.6-12.1,0.1-18.2
		c-4.3-4.3-7.8-9.1-8.1-15.5c-0.3-1.1-0.3-2.2-0.1-3.3c1.1-2.9,0.4-6.3,2.5-8.9c0.3-2.5,1.6-3.6,4.3-3.1c1.7,0.3,3.4,0.2,5.1,0.1
		c4.5-0.2,4.7-0.4,5-4.7c6,9.2,3.6,24.2-5.6,35.5C274.8,87.9,275.1,94,275.3,100z"/>
	<path d="M633.7,44.9c-1.6,6.2-3.4,12.3-2.6,18.8c0.2,1.7,0.7,3.3,1.8,4.8c0.2-0.2,0.4-0.4,0.4-0.5c-1.2-4.1,0.4-4.4,4-3.6
		c4.4,1.1,8.9,0.8,13.3-0.3c3-0.7,4.4-2.4,4.1-5.7c-0.4-4.5-1.5-8.9-2.1-13.4c3.6,6.9,6.4,14,4.7,22c-0.9,4.3-4.3,6.9-7.9,8.9
		c-3.8,2.1-5.4,4.9-5,9.3c0.3,3.1,0.3,6.3,0,9.5c-0.4,3.7,1.2,5.4,4.6,6c1.9,0.4,3.7,0.9,6.2,1.5c-4.8,3.3-8.3-0.6-12.1-0.6
		c-3.8,0-7.2,3.8-11.5,1.1c1.9-1.5,4.1-1.5,6-2c2.6-0.8,4-2.1,3.8-5c-0.2-4.2-0.2-8.4,0-12.6c0.1-2.7-0.9-4.5-3.1-5.9
		c-1.7-1-3.3-2.2-4.9-3.4c-1.9-1.5-3.6-3.2-4.3-5.5C626.5,59.6,629.9,52.2,633.7,44.9z"/>
	<path d="M504.2,78.7c0,4,0,8,0,12c0.4,0,0.9,0,1.3,0.1c0.2-1.5,0.3-3,0.6-4.4c0.2-1-0.2-2.8,1.7-2.4c1.2,0.3,3.1-0.3,3.1,2.5
		c0,3,3.5,2.6,5.4,3.5c2,0.9,2.4-1.1,2.8-2.4c0.6-1.7,1.8-1.9,3.3-2.1c3.7-0.2,7.3-0.7,11-1.1c2.4-0.2,3.4-1.4,3.3-3.9
		c-0.2-3.2,0-6.4,0-9.9c2,0.8,1.7,2,1.6,2.9c-0.1,9.1-0.3,18.2-0.6,27.2c0,0.8-0.1,1.6-0.3,2.3c-0.2,1-1.1,1.2-1.9,0.9
		c-1.8-0.6,0.1-1,0.2-1.5c0.5-2.6-0.5-2.4-2.5-1.9c-8.3,2.2-16.7,2.2-25,0.2c-2.6-0.6-4.8-1.6-4.3,3c-0.8-2.5-0.9-4.5-0.6-6.5
		c-0.8-5-0.1-10-0.4-15C503.6,81.2,502,79.4,504.2,78.7z"/>
	<path d="M437.5,56.7c4.5,2.8,7.8,6.8,11.5,10.7c0.9-1.4-1.1-2-0.4-3.5c10,1.1,20.1,1.8,27.4-7.9c0.5,2.2-0.8,2.9-1.6,3.7
		c-4.2,4.3-8.5,8.6-12.2,13.4c-2.6,3.3-4.1,6.9-3.8,11.3c0.3,3.5,0.3,7.1,0,10.7c-0.3,3.6,1.4,5,4.5,5.7c1.9,0.4,3.7,0.9,6.3,1.5
		c-4.9,3.3-8.4-0.6-12.3-0.6c-3.8,0-7.1,4-11.3,1.1c2-1.6,4.4-1.5,6.6-2.2c2.3-0.8,3.5-2,3.3-4.6c-0.2-2.9-0.3-5.8,0-8.7
		c0.8-6.6-1.7-11.8-6-16.5c-2.1-2.3-4.2-4.7-6.3-7.1C441.1,61.4,438.6,59.7,437.5,56.7z"/>
	<path d="M586.8,53.1c1-2,0.3-3.1-1-4.3c-2.1-1.9-3.8-4.1-4.6-6.8c-0.6-2.1-0.2-3.5,2.5-2.6c3,1,6,2,9,2.9c1.6,0.4,2.4,1.4,3.1,2.8
		c1.1,2.2,2.4,4.4,3.5,6.6c0.6,1.1,2,2.3,1.1,3.5c-1.1,1.4-3,0.8-4.4,0.3c-1.7-0.6-3.4-1.4-5-2.4C589.8,52.2,588.6,51.7,586.8,53.1z
		"/>
	<path d="M475.2,47.8c0.5,5.1-0.3,9.6-6.4,10.1C466.7,51.8,470.3,49.1,475.2,47.8z"/>
	<path fill="#313131" d="M504.2,78.7c-0.6,1-0.7,2-0.7,3.2c-0.2,0.6-0.5,0.6-0.7,0c0-3.9,0-7.9,0-11.8
		C504.6,72.9,504.3,75.8,504.2,78.7z"/>
	<path d="M265.2,54.8c-1.5-4,0.6-7.2,2.1-10.6c0.3,3.4-1.5,6.6-1.3,10C265.8,54.5,265.5,54.7,265.2,54.8z"/>
	<path fill="#3F3F3F" d="M272.4,81.9c1.3,6.1,1.4,12.1-0.1,18.2C273,94,272.8,87.9,272.4,81.9z"/>
	<path fill="#3F3F3F" d="M275.3,100c-0.9-6.1-1.2-12.1,0.2-18.2C275.4,87.9,275.3,94,275.3,100z"/>
	<path d="M265.1,62.9c-0.3,1.2-0.5,2.3-0.8,3.5c-0.5-3.7-2-7.5,1-10.9C265.9,57.9,265.9,60.4,265.1,62.9z"/>
	<path fill="#F2F2F2" d="M265.1,62.9c0.1-2.5,0.1-5,0.2-7.5c-0.1-0.2-0.1-0.5-0.1-0.7c0.3-0.2,0.5-0.4,0.8-0.6c0.2,0,0.5,0,0.7,0
		c-0.3,3.5-0.9,7-0.5,10.7C264.8,64.5,265.4,63.5,265.1,62.9z"/>
	<path fill="#373737" d="M502.8,81.9c0.2,0,0.5,0,0.7,0c0,5.2,0,10.3,0,15.5C502.4,92.2,502.8,87,502.8,81.9z"/>
	<path fill="#FAFAFA" d="M526.5,88c2.4,1.4,3.9,3.8,3.9,6c-0.1,2.8-3.4,3.1-5.6,4.2c-1,0.5-4.7-4.6-4.2-6
		C521.6,89.6,524.4,89.3,526.5,88z"/>
</g>
<g>
	<g>
		<path d="M56.3,81.3c-0.9,0-1.7-0.2-2.3-0.6c-0.6-0.4-0.9-1-0.9-1.6c0-0.6,0.3-1.2,0.9-1.7c1.1-0.9,5.4-2.7,13-5.2
			c7.6-2.6,12-3.9,13.4-3.9c1.2,0,1.8,0.7,1.8,2c0,0.9-0.7,1.6-2.2,2.1c-1.1,0.3-2.1,0.6-3.2,0.9c-1.6,0.5-3.3,1-5,1.4
			c-2.6,0.8-3.8,1.4-3.7,1.8c14.1-1.9,30.1-7.1,48.2-15.6c6-2.8,12.8-6.4,20.5-10.9c11.3-6.6,16.9-11,16.9-13.4c0-2.7-4.1-4-12.3-4
			c-7,0-16.3,0.9-27.9,2.8c-12.4,2-21.4,4.2-26.9,6.5c1.2,5.5,2.3,10,3.2,13.7c0.5-1,1.2-1.5,1.9-1.5c1,0,1.8,0.8,2.4,2.5
			c0.4,1.3,0.6,2.6,0.6,3.8c0,1.5-0.2,2.9-0.7,4.2c-0.6,1.5-1.4,2.3-2.4,2.3c-0.7,0-1.5-0.4-2.3-1.2c-1.2-1.1-3.2-8.5-6.3-22.4
			c-12.1,4.8-19.9,7.2-23.3,7.2c-2.1,0-3.2-0.8-3.2-2.3c0-0.7,0.3-1.4,0.9-2.1c2-2.1,10-5.1,24.2-9.1c-1.2-6-2.6-12.5-4-19.6
			c-8.7,2.6-20.5,5.6-35.3,9.1c-17.8,4.2-29.5,7.1-35.3,8.6c-0.8,0.3-1.5,0.6-2.2,0.8c-1.2,0.4-2.2,0.6-2.9,0.6
			c-1.3,0-1.9-0.6-1.9-1.9c0-1,0.8-1.7,2.4-2.3c1.2-0.3,2.4-0.6,3.6-0.9c17.2-4.8,29-8,35.4-9.6c13.2-3.5,25.1-6.2,35.6-8.2
			c-0.7-3.5-1-5.3-1-5.5c0-0.3,0.2-0.7,0.5-1.2c0.3-0.5,0.7-0.7,1.2-0.7c1.2,0,2.3,2.2,3.1,6.6c12-2.2,21.6-3.2,28.9-3.2
			c3.8,0,7.1,0.3,9.9,1c4.6,1.1,6.9,3,6.9,5.6c0,3.3-5.3,8-15.9,14c10.1-1.6,18.8-2.4,26.1-2.4c5.2,0,9.7,0.4,13.5,1.2
			c6.4,1.3,9.6,3.6,9.6,6.8c0,5.1-7.1,11.6-21.2,19.4c-9.1,5.1-18.7,9.6-28.7,13.4c-8.9,3.5-17.6,6.3-25.9,8.4
			C73.4,80,64.1,81.3,56.3,81.3z M109.9,14.1c-8.6,0-18.1,0.9-28.4,2.8c1.3,6.8,2.6,13.2,3.9,19.2c18.2-4.9,29.9-10.5,35.1-16.7
			c0.6-0.8,0.9-1.5,0.9-2.1C121.4,15.2,117.6,14.1,109.9,14.1z"/>
		<path d="M159.9,58.8c0.6,0.6,2,0.9,4.2,0.9c3.2,0,6.9-0.4,10.9-1.3c4.1-0.8,7.6-1.9,10.7-3.1c0.2-0.1,0.5-0.1,0.7-0.1
			c1.1,0,1.6,0.5,1.6,1.6c0,1.6-3.5,3.1-10.5,4.5c-5.8,1.2-10.2,1.8-13.1,1.8c-5.1,0-7.7-1.4-7.7-4.2c0-6.3,8.9-9.6,26.6-10
			c-4.7-0.9-12.7-1.4-24-1.4c-1.1,0-1.7-0.6-1.7-1.7c0-1,0.6-1.5,1.7-1.7c0.6-0.1,3.6-0.1,9.1-0.1c4.4,0,8.4,0.3,12.1,0.9
			c6.2,1,9.4,2.7,9.4,5c0,1.4-2.5,2.3-7.5,2.4c-8.3,0.4-12.9,0.7-14,0.9C163.2,54,160.3,55.9,159.9,58.8z"/>
		<path d="M199.4,57.8c0.4,1.9,0.6,3.3,0.6,4.3c0,2-0.7,3-2.1,3c-1.6,0-2.4-1.4-2.4-4.2c0-1.3,0.1-2.4,0.4-3.3c-0.9-3-1.7-5-2.6-6
			c-0.3-0.3-0.4-0.7-0.4-1.2c0-1.1,0.5-1.6,1.6-1.6c1,0,2.2,1.7,3.5,5c3.1-3.7,8-6.3,14.7-7.7c0.5-0.1,1,0,1.4,0.3
			c0.4,0.3,0.6,0.7,0.6,1.2c0,0.8-0.4,1.3-1.2,1.6c-3.6,1-6.2,1.9-8.1,2.9C202.5,53.5,200.5,55.4,199.4,57.8z"/>
	</g>
	<g>
		<path d="M49.4,91.7c0.5,0,0.7,0.5,0.8,1.5c0-0.1,0,0.5-0.1,1.9c0,0.5-0.3,0.7-0.7,0.7c0,0,0,0-0.1,0c-1,5.2-1.9,10-2.9,14.5
			c-1.4,6.4-2.4,9.9-2.9,10.4c-0.2,0.2-0.5,0.3-0.8,0.2c-0.4-0.1-0.8-0.6-1.2-1.6c-0.3-0.9-1-3-1.9-6.3c-2.8-10.2-4.9-15.4-6.1-15.5
			c-0.5-0.1-0.7-0.3-0.6-0.8c0.1-0.5,0.3-0.7,0.8-0.6c1.2,0.1,2.4,1.7,3.6,4.8c0.9,2.2,2.1,6.1,3.7,11.7c0.9,3.3,1.6,5.4,1.9,6.3
			c0.6-1.8,1.6-5.8,2.9-12.1c1.2-5.7,2.1-10.2,2.7-13.6C48.6,92.1,48.9,91.6,49.4,91.7z"/>
		<path d="M70,116.1c-1.8,0-3.1-0.1-3.7-0.2c-1.4-0.3-2.3-1-2.8-2.1c-0.1-0.3-0.1-0.5-0.1-0.8c0-1,0.4-1.9,1.3-2.9
			c0.9-0.9,1.8-1.4,2.7-1.4c0.7,0,1.2,0.3,1.6,0.8s0.6,1.1,0.6,1.8c0,1.7-1.4,2.6-4.2,2.8c0.7,0.5,2.3,0.7,4.6,0.7
			c0.4,0,0.6,0.2,0.6,0.7C70.6,115.9,70.4,116.1,70,116.1z M67,105.4c1.3,0,1.9-0.3,1.9-0.8c0-0.2-0.1-0.4-0.4-0.6
			c-0.3-0.2-0.6-0.3-1-0.3c-0.8,0-1.5,0.4-2.1,1.1c-0.7,0.7-1,1.5-1,2.2c0,0.6,0.1,1,0.4,1c0.7,0,1-0.3,1-0.9c0-0.1,0-0.2,0-0.3
			c0-0.1,0-0.2,0-0.3C65.8,105.8,66.2,105.4,67,105.4z M67.4,110c-0.6,0-1.2,0.3-1.7,1c-0.6,0.6-0.9,1.3-1,1.9
			c0.7-0.1,1.4-0.2,2.1-0.4c0.9-0.2,1.4-0.6,1.4-1.2C68.2,110.4,68,110,67.4,110z"/>
		<path d="M89.5,113.4c0,2.3,0,3.7,0.1,4.2c0.2,0.2,0.3,0.4,0.3,0.8c0,0.3-0.1,0.6-0.2,0.9c-0.2,0.3-0.4,0.4-0.6,0.4
			c-0.4,0-0.7-0.8-0.9-2.5c-0.1-0.8-0.1-1.9-0.1-3.2c0-2.1,0-5.2,0.1-9.3c0-4.1,0.1-7.2,0.1-9.3c0-1,0.2-1.5,0.7-1.5
			c0.4,0,0.6,0.5,0.7,1.4c0-0.1,0,0.5,0,1.8c0,1.8,0,4.5-0.1,8.2C89.5,108.8,89.5,111.6,89.5,113.4z"/>
		<path d="M109.6,106c-0.1,0-0.2,0-0.3,0c-0.1,0-0.3,0-0.4,0c-0.3,0-0.5-0.2-0.8-0.6c-0.3-0.4-0.4-0.7-0.4-1c0-0.5,0.3-0.8,0.8-0.8
			c0.4,0,0.8,0.2,1.2,0.6c0.4,0.4,0.6,0.8,0.6,1.1C110.2,105.8,110,106,109.6,106z M109.6,117.8c-0.8-0.4-1.2-1.8-1.2-4.1
			c0-0.2,0-0.6-0.1-1c-0.1-0.5-0.1-0.8-0.1-1c0-0.5,0.2-0.7,0.7-0.7c0.5,0,0.8,0.5,0.9,1.6c0,0.2,0,0.9,0,2.1
			c0.5,0.2,0.8,0.8,0.8,1.8C110.5,117.3,110.2,117.8,109.6,117.8z"/>
		<path d="M133.3,118.3c-1.1,0-2.2-0.7-3.2-2.2c-0.7-1-1.4-2.2-1.9-3.7c-0.3-0.8-0.5-1.5-0.5-2c0-0.6,0.2-0.8,0.5-0.8
			c0.5,0,0.8,0.3,0.9,0.8c0.2,1.1,0.7,2.4,1.5,3.8c0.9,1.7,1.8,2.6,2.7,2.6c0.3,0,0.6-0.2,0.7-0.6c0,0,0-0.4,0.1-1.1
			c0.1-1.3,0.3-2.3,0.6-3c0.4-1,1.1-1.7,1.9-2.3c0.1-0.1,0.3-0.1,0.4-0.1c0.5,0,0.8,0.3,0.8,0.8c0,0.2-0.1,0.4-0.3,0.6
			c-0.8,0.7-1.4,1.4-1.6,2.1c-0.1,0.3-0.2,1-0.2,2c0,0.9-0.2,1.6-0.5,2.1C134.8,117.9,134.2,118.3,133.3,118.3z"/>
		<path d="M154,112.6c0-1,0.5-2.1,1.6-3.2c1.1-1.1,2.1-1.7,3.2-1.7c0.8,0,1.9,0.5,3.2,1.6c1.4,1.1,2.1,2.1,2.1,2.9
			c0,1-0.6,2.1-1.7,3.1s-2.2,1.5-3.3,1.5c-1,0-2.1-0.4-3.3-1.3C154.6,114.6,154,113.7,154,112.6z M158.9,109.4
			c-0.8,0-1.6,0.4-2.4,1.3c-0.7,0.8-1.1,1.4-1.1,1.9c0,0.6,0.5,1.2,1.4,1.9c0.9,0.6,1.7,0.9,2.3,0.9c0.7,0,1.5-0.4,2.3-1.1
			c0.8-0.7,1.2-1.4,1.2-2.1c0-0.6-0.5-1.2-1.4-1.9C160.2,109.7,159.4,109.4,158.9,109.4z"/>
		<path d="M183.3,113.4c0,2.3,0,3.7,0.1,4.2c0.2,0.2,0.3,0.4,0.3,0.8c0,0.3-0.1,0.6-0.2,0.9c-0.2,0.3-0.4,0.4-0.6,0.4
			c-0.4,0-0.7-0.8-0.9-2.5c-0.1-0.8-0.1-1.9-0.1-3.2c0-2.1,0-5.2,0.1-9.3c0-4.1,0.1-7.2,0.1-9.3c0-1,0.2-1.5,0.7-1.5
			c0.4,0,0.6,0.5,0.7,1.4c0-0.1,0,0.5,0,1.8c0,1.8,0,4.5-0.1,8.2C183.3,108.8,183.3,111.6,183.3,113.4z"/>
		<path d="M208.4,116.1c-1.8,0-3.1-0.1-3.7-0.2c-1.4-0.3-2.3-1-2.8-2.1c-0.1-0.3-0.1-0.5-0.1-0.8c0-1,0.4-1.9,1.3-2.9
			c0.9-0.9,1.8-1.4,2.7-1.4c0.7,0,1.2,0.3,1.6,0.8s0.6,1.1,0.6,1.8c0,1.7-1.4,2.6-4.2,2.8c0.7,0.5,2.3,0.7,4.6,0.7
			c0.4,0,0.6,0.2,0.6,0.7C209,115.9,208.8,116.1,208.4,116.1z M205.8,110c-0.6,0-1.2,0.3-1.7,1c-0.6,0.6-0.9,1.3-1,1.9
			c0.7-0.1,1.4-0.2,2.1-0.4c0.9-0.2,1.4-0.6,1.4-1.2C206.6,110.4,206.4,110,205.8,110z"/>
	</g>
</g>
</svg>
