<?xml version="1.0" encoding="utf-8"?>
<!-- Generator: Adobe Illustrator 18.0.0, SVG Export Plug-In . SVG Version: 6.00 Build 0)  -->
<!DOCTYPE svg PUBLIC "-//W3C//DTD SVG 1.1//EN" "http://www.w3.org/Graphics/SVG/1.1/DTD/svg11.dtd">
<svg version="1.1" id="Calque_1" xmlns="http://www.w3.org/2000/svg" xmlns:xlink="http://www.w3.org/1999/xlink" x="0px" y="0px"
	 viewBox="0 0 72.4 94.3" enable-background="new 0 0 72.4 94.3" xml:space="preserve">
<g>
	<g>
		<path fill="#FFFFFF" d="M36.2,94.3c10,0,20,0.1,30,0c5.5-0.1,7.4-3.3,5.5-8.2c-0.7-1.6-1-3.5-1.1-5.2c-0.2-4.2,0.1-8.3-0.1-12.5
			c-0.1-2.3-1.4-4.8-0.8-6.8c1.6-6.3,0.6-12.6,0.8-18.9c0.1-2.4-1.3-5-0.8-7.3c1.7-7.8,0.5-15.6,0.8-23.4c0.1-3.6-0.5-4-4-4.2
			c-1-0.1-2,0-3,0c-18.5,0-37,0-55.5,0c-6,0-6.2,0-6,6.2c0.2,7.1-1.1,14.3,0.9,21.3c0.2,0.6,0,1.3-0.1,2C2.5,40,1.9,42.8,2,45.6
			C2.1,51.2,3.6,57,2.7,62.4c-0.9,6-0.3,11.9-0.8,17.9c-0.2,2.1-0.6,4.2-1.4,6.2c-1.5,4.2,0.3,7.4,4.7,7.8c1.2,0.1,2.3,0,3.5,0
			C17.9,94.3,27,94.3,36.2,94.3z M44.2,0.6c0.2,0.1-0.5-0.5-1.3-0.5C38.3,0,33.7,0,29.1,0.2c-0.4,0-1.2,1.6-1.1,2.4
			c0.3,2.5,4.1,4.5,6,3c1.8-1.4,2.7-1.4,4.5,0C40.6,7.2,44.4,4.6,44.2,0.6z"/>
		<path d="M36.2,94.3c-9.2,0-18.3,0-27.5,0c-1.2,0-2.3,0.1-3.5,0c-4.4-0.4-6.2-3.6-4.7-7.8c0.7-2,1.2-4.1,1.4-6.2
			c0.5-5.9-0.1-11.9,0.8-17.9C3.6,57,2.1,51.2,2,45.6c-0.1-2.8,0.5-5.6,0.8-8.4c0.1-0.7,0.2-1.4,0.1-2c-2-7-0.7-14.2-0.9-21.3
			C1.8,7.8,2,7.8,8,7.8c18.5,0,37,0,55.5,0c1,0,2,0,3,0c3.5,0.2,4.1,0.6,4,4.2c-0.3,7.8,0.9,15.6-0.8,23.4c-0.5,2.3,0.9,4.9,0.8,7.3
			c-0.2,6.3,0.8,12.6-0.8,18.9c-0.5,2.1,0.7,4.5,0.8,6.8c0.2,4.2-0.1,8.3,0.1,12.5c0.1,1.8,0.5,3.6,1.1,5.2c2,5,0,8.2-5.5,8.2
			C56.2,94.4,46.2,94.3,36.2,94.3z M65.9,83.8c0-5,0-9.5,0-14c-0.1-5.1-0.5-5.5-5.4-5.5c-11,0-22,0-33,0c-1.3,0-2.7,0-4-0.3
			c-0.6-0.2-1.4-1.2-1.4-1.7c0.1-0.8,0.7-2,1.4-2.2c1.2-0.4,2.6-0.3,3.9-0.3c10.8,0,21.7,0,32.5,0c5.5,0,5.8-0.3,5.9-6
			c0-3.3,0-6.7,0-10c-0.1-5-0.5-5.4-5.4-5.4c-10.7,0-21.3,0-32,0c-1.2,0-2.3,0-3.5,0c-1.4-0.1-2.8-0.3-2.8-2.1
			c-0.1-2.1,1.5-2.3,3.1-2.4c1.2,0,2.3,0,3.5,0c10.8,0,21.7,0,32.5,0c2.4,0,4.5-0.3,4.6-3.2c0.1-5.9,0-11.9,0-17.7
			c-7.1-1.1-55.7-0.7-59.4,0.4c0,5.4-0.1,10.9,0,16.4c0.1,3.4,0.8,4,4.2,4.1c1.8,0.1,3.7-0.2,5.5,0.2c0.8,0.2,1.7,1.4,1.9,2.3
			c0.1,0.5-1.1,1.7-1.8,1.8c-2,0.3-4,0.3-6,0.2c-2.6-0.1-3.7,1.3-3.8,3.6c-0.1,4.8-0.1,9.7,0,14.5c0.1,2.4,1.4,3.6,3.9,3.4
			c1.7-0.1,3.3,0,5,0c1.4,0,2.7,0.4,2.8,2.2c0.1,1.8-1.2,2.2-2.6,2.3c-1.8,0.1-3.7,0.1-5.5,0c-2.3-0.1-3.5,1.2-3.5,3.3
			c-0.1,5.3,0,10.5,0,16.2c2.4,0,4.2,0,6,0c1.2,0,2.4-0.2,3.5,0.2c0.9,0.3,1.5,1.4,2.2,2.1c-0.8,0.7-1.4,1.9-2.3,2.1
			c-1.8,0.3-3.6,0.1-5.5,0.2c-1.5,0.1-3.1,0.2-4.6,0.3c5.1,1.7,57.4,1.5,60.6-0.3c-1.6,0-3.2,0-4.9,0c-11.3,0-22.7,0-34,0
			c-1.3,0-2.7,0.1-3.9-0.3c-0.7-0.2-1.3-1.4-1.4-2.2c-0.1-0.5,0.8-1.6,1.4-1.7c1.4-0.3,3-0.3,4.5-0.3C40.4,83.7,52.8,83.8,65.9,83.8
			z"/>
		<path d="M38.5,5.6c-1.9-1.4-2.7-1.4-4.5,0c-1.9,1.5-5.7-0.6-6-3C27.8,1.8,28.6,0.1,29,0c4.7-0.1,9.3,0,13.9,0"/>
		<path d="M33.8,5.6c1.9-1.4,2.7-1.4,4.5,0c1.9,1.5,5.7-0.6,6-3c0.1-0.8-0.7-2.5-1.1-2.6C38.5,0,34,0,29.4,0.1"/>
		<path fill="#FFFFFF" d="M65.9,83.8c-13.2,0-25.5,0-37.8,0c-1.5,0-3,0-4.5,0.3c-0.6,0.1-1.5,1.2-1.4,1.7c0.1,0.8,0.8,2,1.4,2.2
			c1.2,0.4,2.6,0.3,3.9,0.3c11.3,0,22.7,0,34,0c1.6,0,3.2,0,4.9,0c-3.2,1.7-55.5,2-60.6,0.3c1.5-0.1,3.1-0.2,4.6-0.3
			c1.8-0.1,3.7,0.2,5.5-0.2c0.9-0.2,1.5-1.3,2.3-2.1c-0.7-0.7-1.3-1.8-2.2-2.1c-1-0.4-2.3-0.2-3.5-0.2c-1.8,0-3.6,0-6,0
			c0-5.7-0.1-10.9,0-16.2c0-2.1,1.2-3.4,3.5-3.3c1.8,0.1,3.7,0,5.5,0c1.4-0.1,2.7-0.5,2.6-2.3c-0.1-1.8-1.4-2.1-2.8-2.2
			c-1.7-0.1-3.3-0.1-5,0c-2.5,0.2-3.8-1.1-3.9-3.4c-0.1-4.8-0.1-9.7,0-14.5c0-2.3,1.2-3.7,3.8-3.6c2,0.1,4,0.1,6-0.2
			c0.7-0.1,1.9-1.4,1.8-1.8c-0.2-0.9-1.1-2.1-1.9-2.3c-1.8-0.4-3.6-0.1-5.5-0.2c-3.4-0.1-4.1-0.7-4.2-4.1c-0.1-5.5,0-11,0-16.4
			c3.6-1.1,52.2-1.4,59.4-0.4c0,5.9,0.1,11.8,0,17.7c-0.1,2.9-2.2,3.2-4.6,3.2c-10.8-0.1-21.7,0-32.5,0c-1.2,0-2.3,0-3.5,0
			c-1.6,0.1-3.1,0.3-3.1,2.4c0.1,1.8,1.4,2,2.8,2.1c1.2,0,2.3,0,3.5,0c10.7,0,21.3,0,32,0c4.9,0,5.4,0.4,5.4,5.4c0.1,3.3,0,6.7,0,10
			c-0.1,5.7-0.3,6-5.9,6c-10.8,0-21.7,0-32.5,0c-1.3,0-2.7-0.1-3.9,0.3c-0.7,0.2-1.3,1.4-1.4,2.2c-0.1,0.5,0.8,1.5,1.4,1.7
			c1.3,0.3,2.6,0.3,4,0.3c11,0,22,0,33,0c4.9,0,5.3,0.4,5.4,5.5C66,74.2,65.9,78.7,65.9,83.8z M35.9,22.2c2.3,0,4.7,0.1,7,0
			c1.9-0.1,3.3-1,3.4-3c0.1-2.3-1.3-3.4-3.4-3.4c-4.5-0.1-9-0.1-13.5,0c-1.9,0-3.3,0.9-3.4,2.9c-0.1,2.3,1.3,3.3,3.4,3.4
			C31.6,22.3,33.8,22.2,35.9,22.2z"/>
		<path d="M35.9,22.2c-2.2,0-4.3,0.1-6.5,0c-2.1-0.1-3.5-1.2-3.4-3.4c0.1-2,1.5-2.9,3.4-2.9c4.5-0.1,9-0.1,13.5,0
			c2.1,0,3.5,1.2,3.4,3.4c-0.1,2-1.5,2.9-3.4,3C40.6,22.3,38.3,22.2,35.9,22.2z"/>
	</g>
</g>
</svg>
